# xmcd
#
# Track frame offsets: 
#        150
#        17176
#        36000
#        53344
#        69937
#        87100
#        101970
#        116438
#        141984
#        154578
#        172073
#        194568
#        207085
#
# Disc length: 3045 seconds
#
# Revision: 0
# Processed by: cddbd v1.5.2PL0 Copyright (c) Steve Scherf et al.
# Submitted via: ExactAudioCopyFreeDBPlugin 1.0
#
DISCID=ad0be30d
DTITLE=Barbara Diab - To Blues With Love
DYEAR=2015
DGENRE=Blues
TTITLE0=Everything Blues
TTITLE1=Blues For T-Model Ford
TTITLE2=Kool Cat Strut
TTITLE3=Long As I Can See The Light
TTITLE4=Enough Of You
TTITLE5=Honkey Tonk Women
TTITLE6=You Really Got A Hold On Me
TTITLE7=Summertime
TTITLE8=I Love You More
TTITLE9=Monsieur Blues
TTITLE10=Santa's Got Something Special For Me
TTITLE11=Veranda Blues
TTITLE12=Good Morning Blues
EXTD=
EXTT0=
EXTT1=
EXTT2=
EXTT3=
EXTT4=
EXTT5=
EXTT6=
EXTT7=
EXTT8=
EXTT9=
EXTT10=
EXTT11=
EXTT12=
PLAYORDER=
